Coordinates
version=1
nRows=8
nColumns=33
inDegrees=yes

Units are S.I. units (second, meters, Newtons, ...)
Angles are in degrees.

endheader
time	ground_thorax_rot_x	ground_thorax_rot_y	ground_thorax_rot_z	ground_thorax_tx	ground_thorax_ty	ground_thorax_tz	clav_prot_r	clav_elev_r	scapula_abduction_r	scapula_elevation_r	scapula_upward_rot_r	scapula_winging_r	shoulder_elv_r	plane_of_elev_r	axial_rot_r	elbow_flexion_r	pro_sup_r	wrist_flex_r	wrist_dev_r	clav_prot_l	clav_elev_l	scapula_abduction_l	scapula_elevation_l	scapula_upward_rot_l	scapula_winging_l	shoulder_elv_l	plane_of_elev_l	axial_rot_l	elbow_flexion_l	pro_sup_l	wrist_flex_l	wrist_dev_l
      2.24000000	      5.11385119	     -1.90610731	     12.22782737	     -0.11510528	      1.04413401	      0.01258157	     14.31765451	     -9.82278862	     30.07981899	     -6.66579976	     10.25265478	     -9.24792982	     57.09420646	     14.26196336	    -22.56317702	    131.87256702	     54.86555365	     39.81288210	    -24.99999983	      9.20921179	     -8.94947728	    -14.54818902	      0.19740593	     -6.93033807	      2.06901193	     62.08443339	     48.15207656	      3.21040740	    118.01752388	     35.32918092	     -8.03815337	    -16.97234221
      2.25000000	      5.11900947	     -1.77645454	     12.30409672	     -0.11474685	      1.04402999	      0.01267924	     14.45943572	     -9.64432761	     30.32720887	     -6.51596739	     10.27107627	     -9.44598404	     57.57722201	     14.11337265	    -21.81221328	    132.41889444	     52.00538083	     37.13623867	    -24.99999983	      9.23101649	     -8.79400383	    -14.58430432	      0.06401973	     -6.90904668	      2.13816037	     61.75904675	     48.35461265	      2.82582013	    117.98969350	     35.59060861	     -8.41743499	    -17.14739262
      2.26000000	      5.05126410	     -1.68151257	     12.39559678	     -0.11462475	      1.04431203	      0.01299266	     14.43111809	     -9.59221582	     30.37223324	     -6.52769287	     10.43152876	     -9.48392440	     57.77689066	     14.21774244	    -21.71124391	    132.56520987	     51.95155232	     37.08866985	    -24.99999983	      9.25019554	     -8.76428032	    -14.60838375	      0.02656399	     -6.93222969	      2.15479643	     61.84242306	     48.33926335	      2.64924748	    117.95999348	     35.61506244	     -8.40107250	    -17.16930615
      2.27000000	      4.94991055	     -1.42685136	     12.45601422	     -0.11453104	      1.04463876	      0.01262304	     14.59451429	     -9.69321228	     30.81966219	     -6.72087229	     10.73508690	     -9.62894774	     58.77594522	     13.69633190	    -21.34412367	    132.75228939	     49.69106329	     33.98065184	    -24.99999983	      9.42538404	     -8.62820556	    -14.86183994	     -0.14776399	     -7.04121576	      2.29871100	     61.41506421	     48.73684965	      2.16859284	    117.77184029	     36.13459949	     -9.04546838	    -17.60640611
      2.28000000	      4.81184511	     -1.29858430	     12.53890921	     -0.11456950	      1.04507336	      0.01273275	     14.53282489	     -9.60058715	     30.93615330	     -6.76949322	     11.10456484	     -9.70999733	     59.02265836	     13.81616614	    -21.52973988	    132.39716084	     49.76248205	     33.86623023	    -24.99999983	      9.48358120	     -8.68728767	    -14.94387401	     -0.12003253	     -7.10008256	      2.30944849	     61.45274632	     48.83034694	      1.93793324	    117.66537627	     36.18841975	     -9.04849113	    -17.64032392
      2.29000000	      4.68419742	     -1.15612945	     12.60383144	     -0.11457495	      1.04564753	      0.01261741	     14.44318132	     -9.43141778	     31.06451547	     -6.78659029	     11.57031474	     -9.82248516	     59.32337302	     13.95334109	    -21.74916102	    131.96796733	     49.80330136	     33.73450890	    -24.99999983	      9.55199856	     -8.72499470	    -15.03201839	     -0.12324063	     -7.18308693	      2.33155255	     61.46737876	     48.94658622	      1.71057549	    117.54206146	     36.26399237	     -9.08059667	    -17.68924123
      2.30000000	      4.52333524	     -0.92422412	     12.54367078	     -0.11443037	      1.04568517	      0.01229250	     14.38881890	     -8.72168347	     31.47892123	     -6.46403257	     12.40441819	    -10.29786529	     59.35084647	     13.98827461	    -22.09881580	    131.73211044	     49.56161796	     32.80436419	    -24.99999983	      9.65938587	     -8.42215565	    -15.25876314	     -0.33282773	     -7.03041702	      2.53158167	     61.13482346	     49.39024949	      1.36127003	    117.18077864	     36.87578589	    -10.02942529	    -18.21075275
      2.31000000	      4.41353417	     -0.81635414	     12.71249046	     -0.11463897	      1.04635538	      0.01232386	     14.29810536	     -8.55366243	     31.65457872	     -6.50501209	     12.94512794	    -10.42663816	     59.65028893	     14.20348725	    -22.28973173	    130.98951642	     49.65982310	     32.71053732	    -24.99999983	      9.74184987	     -8.46732676	    -15.35311000	     -0.35297092	     -7.16698208	      2.55137951	     61.10080160	     49.44412823	      1.15096766	    117.07999528	     36.92208278	    -10.07738532	    -18.25126523
